<svg xmlns="http://www.w3.org/2000/svg" viewBox="0 0 1200 1200" width="1200" height="1200" role="img" aria-label="PENGINAPAN - MesaStila Resort">
<title>MesaStila Resort</title>
<defs><linearGradient id="bg-resort-1200x1200" x1="0" y1="0" x2="1" y2="1"><stop offset="0%" stop-color="#EAF4F2"/><stop offset="100%" stop-color="#C9E3DE"/></linearGradient><pattern id="dots-resort-1200x1200" width="26" height="26" patternUnits="userSpaceOnUse"><circle cx="2" cy="2" r="1.6" fill="#1F4A45" opacity="0.16"/></pattern><pattern id="grid-resort-1200x1200" width="64" height="64" patternUnits="userSpaceOnUse"><path d="M64 0 H0 V64" fill="none" stroke="#1F4A45" stroke-width="1" opacity="0.1"/></pattern></defs>
<rect width="1200" height="1200" fill="url(#bg-resort-1200x1200)"/>
<rect width="1200" height="1200" fill="url(#grid-resort-1200x1200)"/>
<rect width="1200" height="1200" fill="url(#dots-resort-1200x1200)"/>
<rect x="204.0" y="180.0" width="792.0" height="840.0" rx="26" fill="#FFFFFF" opacity="0.55" stroke="#1F4A45" stroke-opacity="0.18" stroke-width="2"/>
<g transform="translate(516.0, 432.0) scale(0.4200)" fill="none" stroke="#1F4A45" stroke-opacity="0.5" stroke-width="13" stroke-linecap="round" stroke-linejoin="round"><rect x="100" y="60" width="200" height="150" rx="8"/><path d="M76 60 H324"/><path d="M140 108 h30 M200 108 h30 M260 108 h30 M140 158 h30 M200 158 h30 M260 158 h30 M172 210 v-40 h56 v40"/><path d="M180 28 v32 M220 28 v32"/></g>
<text x="600" y="767.1" text-anchor="middle" font-family="sans" font-size="19" font-weight="700" letter-spacing="3.6" fill="#C85C3E">PENGINAPAN</text>
<text x="600" y="795.6" text-anchor="middle" font-family="Georgia, &quot;Times New Roman&quot;, serif" font-size="58" font-weight="700" fill="#1F4A45">MesaStila Resort</text>
<text x="600" y="887.88" text-anchor="middle" font-family="&quot;Segoe UI&quot;, system-ui, -apple-system, Helvetica, Arial, sans-serif" font-size="28" font-weight="400" fill="#1F4A45">Resort · Jawa Tengah</text>
<g transform="rotate(-6 166 75)"><rect x="48" y="48" width="236" height="54" rx="27" fill="#1F4A45" opacity="0.72"/><text x="166" y="757.0" text-anchor="middle" font-family="sans" font-size="21" font-weight="700" letter-spacing="2.2" fill="#FFFFFF">GAMBAR DUMMY</text></g>
<text x="1152" y="1160" text-anchor="end" font-family="sans" font-size="19" font-weight="600" fill="#1F4A45">1200x1200</text>
</svg>
